<svg xmlns="http://www.w3.org/2000/svg" width="106" height="54" fill="none"><path fill="#353535" d="M.5 53.87v-5.768h2.55q.58 0 1.016.185.436.186.678.525.242.33.242.782 0 .427-.242.759-.241.33-.678.516-.436.186-1.016.186H1.968v-.428H3.05q.653 0 1.137.194.492.185.767.532.274.348.274.823 0 .51-.274.896-.275.38-.767.589-.484.21-1.137.21zm1.388-1.137h1.17q.354 0 .556-.17a.6.6 0 0 0 .21-.483.53.53 0 0 0-.21-.444q-.201-.162-.556-.162h-1.25V50.37h1.145q.298 0 .46-.153a.57.57 0 0 0 .17-.436q0-.258-.17-.395-.162-.146-.46-.146H1.888zM15.117 48.102v3.493q0 1.138-.686 1.775-.677.63-1.88.63-1.194 0-1.88-.63-.685-.636-.685-1.775v-3.493h1.388v3.493q0 .517.314.856.315.33.864.33.555 0 .871-.33.315-.339.315-.856v-3.493zM19.75 52.919l.912-.92q.185.25.476.435a2.5 2.5 0 0 0 1.307.38q.347 0 .58-.065a.85.85 0 0 0 .364-.194.42.42 0 0 0 .121-.298q0-.242-.266-.404-.267-.169-.993-.274-.774-.113-1.274-.339-.5-.234-.743-.58a1.44 1.44 0 0 1-.242-.832q0-.54.307-.96.306-.42.839-.653a3 3 0 0 1 1.226-.242q.815 0 1.444.298a3.2 3.2 0 0 1 1.057.775l-.903.92a1.9 1.9 0 0 0-.71-.598 1.9 1.9 0 0 0-.872-.217q-.435 0-.71.161t-.274.42q0 .145.105.25.112.105.387.185.274.073.759.154.75.112 1.25.355.51.24.759.613.258.37.258.88 0 .564-.323.976a2.1 2.1 0 0 1-.887.637q-.558.218-1.291.218-.871 0-1.558-.299a3.3 3.3 0 0 1-1.105-.782M31.199 53.87H29.81v-5.768h1.388zM37.596 53.87h-1.364v-5.768h1.445l3.001 4.502h-.597v-4.502h1.364v5.769H40L37 49.368h.597zM50.687 53.87h-4.212v-5.768h4.212v1.154h-2.824v3.46h2.824zm-.153-2.323h-2.751v-1.154h2.75zM55.293 52.919l.912-.92q.186.25.476.435a2.5 2.5 0 0 0 1.307.38q.347 0 .581-.065a.85.85 0 0 0 .363-.194.42.42 0 0 0 .121-.298q0-.242-.266-.404-.267-.169-.992-.274-.776-.113-1.275-.339-.5-.234-.742-.58a1.44 1.44 0 0 1-.242-.832q0-.54.306-.96.307-.42.84-.653a3 3 0 0 1 1.226-.242q.814 0 1.444.298.637.299 1.057.775l-.904.92a1.9 1.9 0 0 0-.71-.598 1.9 1.9 0 0 0-.871-.217q-.435 0-.71.161t-.275.42q0 .145.105.25.114.105.388.185.273.073.758.154.75.112 1.25.355.51.24.759.613.258.37.258.88 0 .564-.322.976a2.1 2.1 0 0 1-.888.637Q58.69 54 57.956 54q-.87 0-1.557-.299a3.3 3.3 0 0 1-1.106-.782M64.906 52.919l.912-.92q.185.25.476.435a2.5 2.5 0 0 0 1.307.38q.347 0 .58-.065a.85.85 0 0 0 .364-.194.42.42 0 0 0 .121-.298q0-.242-.266-.404-.267-.169-.993-.274-.774-.113-1.275-.339-.5-.234-.742-.58a1.44 1.44 0 0 1-.242-.832q0-.54.307-.96.306-.42.839-.653a3 3 0 0 1 1.226-.242q.816 0 1.445.298.637.299 1.056.775l-.903.92a1.9 1.9 0 0 0-.71-.598 1.9 1.9 0 0 0-.872-.217q-.435 0-.71.161t-.274.42q0 .145.105.25.112.105.387.185.275.073.759.154.75.112 1.25.355.51.24.759.613.258.37.258.88 0 .564-.323.976a2.1 2.1 0 0 1-.887.637q-.557.218-1.291.218-.871 0-1.558-.299a3.3 3.3 0 0 1-1.105-.782M84.32 53.87v-5.768h1.388v5.769zm-2.355 0h-1.388v-5.768h1.388zm-.081-2.363v-1.162h2.517v1.162zM95.84 48.102v3.493q0 1.138-.686 1.775-.677.63-1.88.63-1.194 0-1.88-.63-.685-.636-.685-1.775v-3.493h1.388v3.493q0 .517.314.856.315.33.864.33.555 0 .871-.33.315-.339.315-.856v-3.493zM100.842 53.87v-5.768h2.55q.58 0 1.017.185.435.186.677.525.243.33.242.782 0 .427-.242.759-.242.33-.677.516t-1.017.186h-1.081v-.428h1.081q.654 0 1.138.194.492.185.766.532t.274.823q0 .51-.274.896a1.8 1.8 0 0 1-.766.589q-.484.21-1.138.21zm1.388-1.137h1.17q.355 0 .557-.17a.6.6 0 0 0 .21-.483.53.53 0 0 0-.21-.444q-.202-.162-.557-.162h-1.251V50.37h1.146q.298 0 .46-.153a.57.57 0 0 0 .169-.436q0-.258-.169-.395-.162-.146-.46-.146h-1.065z"/><path fill="#731F8E" d="M20.627 41.205q-6.877 0-13.752-.003c-.207 0-.414-.035-.62-.057-.114-.012-.227-.035-.341-.044-.135-.01-.27-.011-.39-.09a.3.3 0 0 0-.119-.035c-.408-.04-.78-.22-1.173-.314-.283-.193-.635-.26-.897-.494A.3.3 0 0 0 3.2 40.1a.19.19 0 0 1-.145-.097.5.5 0 0 0-.139-.123c-.58-.36-1.032-.852-1.47-1.368-.317-.374-.544-.801-.799-1.213a1.5 1.5 0 0 1-.152-.375c-.069-.24-.193-.46-.263-.697-.106-.356-.229-.71-.229-1.094Q.004 27.207 0 19.282q.001-.468.007-.938c.003-.22.019-.436.113-.64a.4.4 0 0 0 .03-.121c.023-.35.201-.65.311-.971.071-.208.209-.4.31-.603q.243-.486.598-.894c.307-.35.593-.716.95-1.02.529-.453 1.043-.921 1.561-1.386.154-.137.296-.288.448-.426.392-.355.787-.704 1.18-1.057q.059-.05.11-.107c.08-.093.144-.197.276-.237.063-.02.112-.091.162-.143.237-.249.512-.456.753-.698.608-.61 1.293-1.134 1.906-1.739a6 6 0 0 1 .726-.624c.125-.09.225-.214.339-.32.409-.38.81-.77 1.234-1.135.276-.236.534-.488.797-.737.313-.296.652-.563.978-.844.054-.047.102-.102.152-.153.161-.161.311-.333.517-.445.07-.04.128-.105.19-.16.2-.181.367-.395.595-.546.329-.39.756-.675 1.117-1.032.266-.263.535-.526.834-.75.447-.332.895-.672 1.42-.88.238-.197.536-.266.815-.37.232-.085.484-.12.72-.195.345-.111.698-.108 1.051-.108.396 0 .793-.012 1.188.013.351.023.7.083 1.036.203.401.143.8.288 1.186.47.028.013.064.011.089.027q.609.401 1.218.804a.4.4 0 0 1 .05.038c.295.275.588.554.888.825.138.124.284.237.42.366.089.085.19.16.276.248q.295.297.617.561c.168.14.322.295.487.439q.268.233.541.461c.009.007.02.009.027.016.271.346.648.581.953.893.347.355.732.674 1.103 1.005.045.04.106.063.157.098.042.028.093.054.121.094.196.286.484.476.732.707q.263.244.524.49c.09.085.176.178.272.256.395.32.755.678 1.12 1.032.17.167.367.307.551.458q.061.048.118.098c.276.267.547.538.828.8.189.177.394.338.588.51q.593.527 1.185 1.056.234.205.464.412c.414.377.816.767 1.241 1.131.282.243.537.513.816.758.273.24.527.502.766.775.149.17.262.373.378.57.167.285.342.565.476.87.112.256.34.855.392 1.108.017.08.044.16.068.239.014.05.044.099.044.148.002.273.057.537.12.8.023.09.009.188.009.28l-.018 13.35c0 .52.01 1.042.017 1.563.003.198-.007.394-.047.59-.073.357-.08.724-.185 1.075-.065.219-.11.445-.188.659-.128.35-.254.703-.42 1.036-.277.557-.582 1.1-1.042 1.534-.197.298-.497.497-.739.754-.118.126-.27.226-.418.32-.297.19-.6.366-.9.545a3 3 0 0 1-.32.169 3 3 0 0 1-.353.114q-.528.14-1.056.271c-.1.025-.204.038-.307.053-.072.011-.148.006-.216.027-.315.1-.638.082-.96.082H20.625v-.002zm-.252-4.144h12.784q.453 0 .906.01c.358.007.706-.061 1.03-.202.543-.236.994-.597 1.285-1.13.054-.1.116-.192.156-.302.18-.488.224-.992.22-1.505-.007-.698-.015-1.396-.016-2.094q-.002-3.142 0-6.283c0-1.47.008-2.939 0-4.408-.002-.635.037-1.27-.019-1.905-.027-.316-.127-.61-.235-.902-.1-.27-.274-.507-.427-.75a1.6 1.6 0 0 0-.257-.312 40 40 0 0 0-.847-.773c-.139-.125-.288-.238-.426-.363-.17-.151-.329-.313-.498-.465-.462-.415-.92-.833-1.384-1.246-.503-.448-.99-.913-1.493-1.36-.54-.482-1.054-.99-1.611-1.453-.278-.232-.532-.492-.797-.74-.19-.177-.373-.36-.566-.532-.346-.308-.7-.608-1.045-.916q-.437-.391-.867-.79c-.467-.427-.96-.824-1.413-1.267-.154-.152-.327-.284-.494-.421-.287-.237-.538-.516-.813-.767q-.76-.69-1.532-1.365c-.108-.094-.242-.16-.367-.233a1.55 1.55 0 0 0-.618-.187c-.145-.015-.29-.061-.432-.055-.404.02-.808.062-1.182.242-.317.153-.636.306-.895.552-.09.085-.168.184-.258.269-.209.194-.442.36-.638.571-.182.197-.4.362-.598.544-.153.14-.3.288-.456.425-.133.116-.282.212-.412.33-.393.356-.77.727-1.17 1.074-.593.518-1.143 1.084-1.759 1.576-.145.117-.276.251-.414.377q-.15.135-.299.273-.514.473-1.024.952c-.415.39-.897.71-1.249 1.167-.011.015-.031.026-.048.037-.466.316-.845.734-1.266 1.102q-.722.634-1.418 1.296c-.249.235-.514.452-.77.68q-.368.331-.732.667c-.237.217-.47.439-.709.654-.239.214-.483.423-.696.667-.033.038-.073.075-.093.12-.187.42-.321.853-.314 1.321.006.427-.003.854-.003 1.282v12.223q.002.969.013 1.939c0 .082 0 .17.023.247.107.37.246.728.475 1.04.128.174.273.352.448.473.235.162.466.337.746.432.286.096.567.204.877.179.073-.006.146.001.219.001q1.203.004 2.406.004h10.972000000000001M101.519 25.943c.229.012.4.162.594.263.185.095.371.185.556.279.663.33 1.245.771 1.749 1.31.141.151.245.337.37.502.244.325.452.673.585 1.053.085.242.191.482.217.746.015.153.076.302.091.455.058.561.044 1.124.012 1.686-.008.134-.014.272-.089.392a.1.1 0 0 0-.019.06c.011.267-.12.502-.178.755a2.4 2.4 0 0 1-.204.518 8 8 0 0 1-.741 1.22c-.133.179-.28.351-.466.489-.166.123-.308.277-.462.415-.364.326-.779.577-1.206.807q-.598.324-1.227.59c-.373.16-.755.276-1.14.395a7 7 0 0 1-1.558.284q-.031.002-.063.006c-.773.16-1.555.106-2.336.11a5 5 0 0 1-.962-.083c-.194-.036-.394-.034-.59-.059-.558-.07-1.106-.18-1.634-.385-.251-.098-.518-.154-.761-.275-.361-.181-.727-.352-1.072-.562-.238-.146-.478-.288-.7-.46a6.5 6.5 0 0 1-.982-.944c-.04-.048-.07-.105-.115-.147-.288-.278-.483-.622-.67-.966-.143-.261-.227-.554-.36-.821-.121-.246-.094-.532-.232-.77-.005-.303-.127-.589-.145-.889-.02-.311-.013-.625-.016-.937q0-.046.006-.093c.017-.11.074-.164.19-.166.208-.005.415-.003.624-.003l2.406.003c.052 0 .104-.004.156-.001.2.012.25.067.249.272-.002.198-.015.396.096.576.02.032.02.08.021.121.001.393.19.712.4 1.024.25.377.575.685.94.941.261.183.556.324.847.458.263.121.527.247.818.294.168.125.368.122.562.152.1.015.192.087.29.097.456.046.912.097 1.37.11.3.01.6-.037.901-.062q.218-.02.435-.045c.072-.008.151-.005.214-.034.145-.07.295-.098.453-.1.021 0 .049 0 .06-.012.154-.155.376-.086.552-.172.178-.086.365-.151.545-.233a5.4 5.4 0 0 0 1.137-.685c.32-.256.503-.591.71-.922a.1.1 0 0 0 .011-.028c.089-.549.315-1.088.094-1.655a.5.5 0 0 1-.025-.122c-.055-.66-.399-1.174-.866-1.603a3.6 3.6 0 0 0-.962-.608c-.138-.062-.257-.16-.422-.176-.14-.014-.279-.077-.412-.135a1.7 1.7 0 0 0-.664-.146c-.07-.002-.137-.042-.208-.06-.09-.022-.182-.05-.273-.055-.458-.025-.916-.057-1.373-.059-.627-.003-1.246-.097-1.869-.13-.294-.105-.613-.095-.909-.208-.239-.092-.501-.122-.746-.2a7 7 0 0 1-.847-.312 13 13 0 0 1-1.004-.54c-.204-.12-.395-.265-.587-.405a5.7 5.7 0 0 1-.91-.795q-.188-.21-.37-.42c-.174-.204-.322-.43-.514-.62l-.019-.024c-.18-.34-.375-.672-.533-1.02a9 9 0 0 1-.366-.992c-.086-.277-.137-.563-.2-.847-.02-.08-.02-.165-.04-.246-.149-.625-.136-1.26-.135-1.896 0-.25.016-.5.03-.75.011-.205 0-.415.086-.612.02-.047.019-.102.026-.154.082-.602.284-1.169.499-1.731.01-.03.036-.056.038-.085.014-.242.178-.415.282-.615.202-.388.483-.724.753-1.065a7 7 0 0 1 1.457-1.352q.04-.025.074-.058c.242-.252.564-.384.855-.562.425-.26.89-.434 1.339-.644.037-.018.075-.04.114-.047.308-.056.597-.168.89-.273.048-.018.1-.023.152-.032.04-.006.084-.006.124-.015.182-.04.361-.092.545-.12.175-.025.352-.02.514-.111.04-.023.102-.013.154-.013q1.094-.008 2.187-.013c.093 0 .186.018.279.033.164.027.327.071.492.084.366.027.712.143 1.061.239.45.123.881.305 1.293.524.073.038.155.059.227.097.069.037.109.149.207.1.06-.031.106-.095.15-.15q.382-.467.762-.936c.235-.29.474-.578.704-.872a.34.34 0 0 1 .26-.148c.038-.002.092.01.114.037.131.163.322.25.475.386.147.132.298.26.461.37.455.31.883.655 1.317.992q.025.018.052.036c.151.12.165.228.023.359-.322.298-.584.648-.872.975-.178.203-.348.413-.521.62l-.451.532c.125.165.239.324.361.476.149.186.294.374.411.583.223.399.455.792.646 1.207.048.103.079.213.117.32.006.02 0 .047.011.061.149.2.148.452.214.677.097.336.213.673.206 1.034-.004.196.013.39.067.585.038.134.011.289 0 .433q-.031.45-.081.901c-.016.143-.054.285-.082.427q-.021.09-.039.182c-.055.318-.164.62-.26.926-.168.534-.449 1.007-.746 1.467-.308.478-.71.884-1.147 1.254-.459.39-.972.695-1.504.971-.09.047-.195.067-.293.099-.049.016-.104.024-.112.113zm-4.856-1.493v-.023c.25 0 .5-.01.75.002.545.025 1.043-.176 1.537-.351a4.6 4.6 0 0 0 1.53-.927c.41-.366.735-.785 1.014-1.25a3.8 3.8 0 0 0 .422-1.028c.093-.361.197-.725.173-1.106-.005-.083.002-.167.005-.25.023-.534-.054-1.057-.176-1.575-.01-.04-.017-.087-.043-.115-.078-.084-.084-.186-.099-.29a1 1 0 0 0-.068-.237 3 3 0 0 0-.145-.31c-.162-.301-.313-.607-.578-.841-.184-.164-.346-.354-.525-.523-.121-.114-.244-.236-.388-.31-.201-.103-.391-.225-.592-.327-.176-.09-.344-.2-.529-.267-.46-.165-.93-.294-1.421-.325-.083-.005-.166-.017-.249-.024-.166-.014-.34-.066-.494-.028-.172.043-.327-.038-.488-.002q-.045.01-.093.013c-.124.015-.248.032-.372.042-.207.018-.415.013-.605.124-.06.035-.14.031-.212.049-.1.024-.202.044-.299.079a8 8 0 0 0-.485.19c-.16.07-.316.149-.473.226-.53.26-.99.607-1.363 1.067-.059.073-.113.15-.18.215-.287.283-.448.64-.591 1.005-.121.31-.186.634-.25.961-.07.36-.121.718-.117 1.084.002.229-.025.46.08.677.017.035.014.081.014.122.02.622.094.748.305 1.351.103.296.278.553.454.809.028.041.077.068.103.11.18.282.378.542.683.703.035.018.06.055.088.085.15.163.342.266.525.382.078.051.17.08.245.135.238.175.518.258.79.354.275.096.558.165.838.243a1 1 0 0 0 .183.03q.547.027 1.092.051zM69.405 11.326c.094.088.173.123.275.122.698-.004 1.396 0 2.093-.001.072 0 .143-.015.215-.023.13.06.178.166.171.304-.012.251.04.494.088.738.024.122.024.248.032.373.007.124.004.25.014.374.018.215.043.43.067.663.025-.017.06-.03.082-.056.26-.309.527-.608.835-.872.26-.222.496-.473.797-.645.116-.066.234-.128.347-.2.236-.147.49-.258.737-.385.155-.08.323-.137.491-.19.238-.073.486-.117.719-.202.368-.134.76-.106 1.134-.201.149-.039.31-.029.466-.032q.36-.006.719-.004c.062 0 .128-.007.187.01.421.127.864.108 1.291.21.457.11.895.259 1.337.41.398.137.74.378 1.123.536.346.143.6.402.881.629.217.177.414.38.632.553.412.327.693.769 1.028 1.16.22.255.39.565.539.87.288.588.543 1.195.707 1.828.118.451.226.911.23 1.384 0 .052 0 .106.01.156.123.567.077 1.142.058 1.712a9 9 0 0 1-.132 1.177 9 9 0 0 1-.271 1.15c-.126.394-.252.792-.448 1.161-.01.018-.025.035-.032.054-.04.116-.068.236-.12.346-.048.102-.136.187-.177.29-.036.09-.095.157-.145.234-.259.402-.561.773-.868 1.136-.2.236-.448.433-.679.643-.153.139-.313.272-.472.404-.038.033-.081.07-.128.08-.077.016-.125.066-.18.115q-.207.189-.475.285a1.6 1.6 0 0 0-.304.154c-.23.14-.478.241-.721.352a3 3 0 0 1-.53.18c-.25.058-.493.147-.749.198-.236.046-.47.081-.71.095-.248.015-.5.012-.739.1a.4.4 0 0 1-.155.015q-.668-.046-1.337-.091a18 18 0 0 0-.53-.025 1.1 1.1 0 0 1-.458-.089c-.037-.018-.078-.043-.116-.042-.217.009-.405-.095-.6-.16-.353-.117-.698-.262-1.043-.404-.24-.098-.444-.266-.693-.351-.124-.043-.201-.17-.314-.246-.344-.234-.642-.526-.925-.83-.077-.083-.133-.186-.2-.279-.022-.03-.05-.058-.081-.094-.073.081-.041.149-.013.212a.26.26 0 0 1-.002.238.4.4 0 0 0-.03.181c.005.582.021 1.166.022 1.748q.003 3 0 6.003c0 .406-.007.811-.013 1.218-.001.103.008.209-.043.307-.14.062-.285.061-.43.062l-2.5.004c-.209 0-.416-.004-.616-.06-.087-.103-.067-.221-.067-.334-.002-.386.001-.77.001-1.156l.002-15.633q-.001-3.251-.005-6.503v-.656c0-.26.117-.37.365-.308.14.035.238-.022.354-.104zm13.623 8.502c-.022-.46-.038-.825-.06-1.19a1.2 1.2 0 0 0-.042-.243c-.062-.236-.166-.458-.248-.687-.185-.522-.501-.976-.855-1.4-.106-.127-.242-.227-.356-.347-.4-.422-.894-.7-1.424-.92-.105-.045-.235-.043-.324-.105-.142-.099-.296-.081-.448-.103-.155-.022-.28-.144-.446-.128l-.03-.002c-.376-.01-.75-.029-1.125-.027-.281 0-.57-.007-.84.052-.313.067-.63.124-.935.24-.637.243-1.234.547-1.693 1.067-.157.178-.363.307-.493.512q-.119.183-.24.364c-.177.279-.358.561-.46.876-.14.432-.259.868-.318 1.326-.117.897-.009 1.763.246 2.62.036.12.07.24.115.356.153.378.395.705.614 1.045.228.354.556.608.858.888.121.113.255.213.387.313.039.03.09.06.135.063.08.004.126.055.187.087.244.133.5.24.751.36.2.097.421.113.627.181.152.05.301.073.457.077q.141.004.281.013a5.8 5.8 0 0 0 1.708-.096c.121-.026.246-.042.37-.062.05-.009.106-.008.152-.027.182-.075.36-.16.541-.236.227-.094.399-.295.656-.33.026-.003.047-.04.072-.056q.661-.45 1.143-1.088c.093-.124.202-.236.289-.364.245-.363.41-.766.55-1.178.068-.205.145-.41.148-.635.007-.437.035-.874.05-1.215zM62.153 13.83c.018-.466.04-.931.054-1.398.008-.25.001-.5.006-.75.003-.155.073-.226.233-.229.291-.005.583-.002.875-.004q1.093-.007 2.185-.019c.204-.002.313.1.305.3-.037.989-.013 1.978-.013 2.968q-.004 6.032-.003 12.065.001.672.005 1.343c0 .143-.058.216-.2.222-.135.006-.27-.004-.406-.003l-2.562.003a1 1 0 0 1-.156-.011c-.136-.027-.196-.093-.204-.233q-.026-.405-.042-.811c-.01-.27-.008-.54-.024-.81-.013-.192-.048-.382-.076-.59-.035.029-.066.042-.078.064-.131.251-.328.454-.5.674a3 3 0 0 1-.505.504c-.415.327-.847.633-1.326.86a12 12 0 0 1-1.501.585c-.098.03-.205.037-.308.043-.157.008-.31.02-.46.076a.8.8 0 0 1-.244.043c-.635.004-1.27.007-1.905 0-.134 0-.266-.039-.4-.06-.143-.021-.287-.051-.431-.061-.176-.013-.356.003-.511-.106-.016-.011-.04-.013-.06-.017-.113-.021-.23-.026-.336-.066-.542-.205-1.099-.38-1.6-.683-.246-.15-.507-.28-.727-.47-.061-.053-.151-.071-.218-.119-.177-.127-.359-.245-.51-.407-.319-.342-.649-.672-.974-1.008-.036-.038-.077-.072-.105-.115q-.23-.366-.461-.736-.092-.144-.188-.284c-.017-.025-.041-.049-.049-.077-.074-.296-.234-.553-.364-.823a3 3 0 0 1-.165-.469c-.132-.491-.287-.978-.318-1.492-.006-.093-.006-.197-.048-.275-.083-.158-.077-.32-.076-.487.003-.676.002-1.354.013-2.03.004-.196.047-.392.074-.588.012-.092.04-.185.042-.277q.004-.22.077-.428c.014-.038.03-.08.032-.12.024-.433.221-.82.31-1.236.114-.158.133-.36.253-.522.11-.147.164-.334.253-.498.133-.245.307-.468.45-.705.159-.26.354-.484.549-.712.263-.306.576-.562.889-.815.145-.116.297-.225.438-.346a3.7 3.7 0 0 1 .676-.442c.146-.078.297-.146.44-.23.286-.175.601-.277.915-.383q.103-.036.205-.075c.212-.083.423-.17.65-.205.113-.017.222-.058.332-.086.081-.02.163-.051.244-.052.252-.002.494-.062.74-.107q.139-.024.28-.025.811-.002 1.624-.002c.042 0 .088-.006.124.009.245.095.509.1.761.16a10 10 0 0 1 1.217.385c.164.061.317.154.47.242q.444.256.883.52c.343.206.605.503.868.796.186.207.35.431.525.647l.056-.012m-10.758 5.928c-.017.42-.015.783.09 1.138q.022.076.025.154c.012.317.124.609.23.9.09.243.23.466.317.705.122.334.346.592.55.862.282.372.648.666 1.035.927.102.068.21.124.318.182.39.211.77.452 1.224.51.04.006.08.023.12.032.141.033.281.07.423.093.124.02.253.01.373.037.267.062.538.069.807.058.239-.01.475-.07.713-.072.37-.002.707-.146 1.062-.212.15-.028.295-.095.433-.164.184-.092.355-.212.54-.302.445-.217.783-.565 1.11-.919.208-.225.37-.493.541-.749.056-.084.064-.199.116-.287.22-.378.33-.8.494-1.2.027-.066.032-.142.047-.213q.023-.106.045-.212a4.8 4.8 0 0 0 .145-1.297 5.6 5.6 0 0 0-.234-1.317 8 8 0 0 0-.703-1.686 4 4 0 0 0-1.068-1.24c-.2-.15-.397-.297-.633-.39-.133-.053-.254-.138-.384-.201-.139-.068-.276-.15-.424-.186-.22-.054-.429-.154-.663-.156-.07 0-.14-.033-.211-.05s-.14-.043-.21-.051c-.551-.06-1.102-.041-1.653-.004-.051.004-.116-.001-.15.027-.1.085-.216.072-.327.077-.244.014-.47.1-.693.18-.311.112-.587.307-.905.407-.038.012-.067.049-.102.07a4.8 4.8 0 0 0-.93.77c-.276.284-.54.571-.72.93-.204.405-.44.799-.503 1.261a.2.2 0 0 1-.033.087c-.093.126-.09.273-.096.418-.004.083-.006.172-.039.243a1 1 0 0 0-.075.426v.415z"/><path fill="#731F8E" d="M61.698 27.346c-.025.015-.046.032-.07.042-.005.001-.033-.036-.03-.04.015-.022.037-.037.057-.055zM88.625 14.717l.074-.026c.005.018.017.04.01.05-.008.012-.033.018-.05.016-.01-.002-.019-.022-.034-.04M3.366 40.373c.01.004.022.006.026.013.003.006-.003.018-.004.027l-.04-.019zM9.43 7.371l-.008.023q-.014-.012-.024-.025c0-.002.01-.011.017-.016zM102.32 10.188c.004.008.011.016.011.023 0 .008-.009.015-.015.022z"/><path fill="#01AB8E" d="M31.037 32.397c-.04.007-.096 0-.116.023-.202.234-.482.325-.752.445-.159.07-.31.103-.476.115a1 1 0 0 0-.154.024c-.482.132-.972.069-1.459.058-.145-.003-.29-.023-.435-.023-4.073.003-8.146.01-12.219.011-.791 0-1.583-.014-2.374-.01-.406.002-.81.03-1.216.045-.156.006-.313.023-.45-.084-.03-.023-.08-.018-.12-.031-.147-.049-.307-.076-.437-.154a1.7 1.7 0 0 0-.488-.196.27.27 0 0 1-.218-.293c.006-.11.008-.197-.09-.277-.045-.037-.051-.131-.06-.202-.02-.153-.016-.308-.079-.457-.033-.082-.019-.185-.02-.279v-4.938000000000001c0-.344.01-.688-.006-1.03-.011-.22.092-.403.141-.602.01-.042.065-.081.108-.104.167-.092.344-.052.517-.023.01.001.024.005.028.012.137.217.38.23.588.316.17.07.34.079.519.065.144-.011.29-.008.436-.007.124.002.249.014.374.014q1.937.002 3.876 0c.165 0 .337.02.466-.135.204.15.423.153.642.15.166-.003.336.006.498-.02.212-.035.415.007.62.021.06.005.119.036.176.06.1.04.15.132.134.224-.034.184.05.371-.023.553a.15.15 0 0 0 0 .093c.06.184.039.37.009.553.148.212.353.288.591.29.375.003.75.01 1.124-.006.205-.009.412-.039.607-.114.07-.027.139-.05.21-.019.164.072.33-.007.494.012.037.005.1-.045.118-.085.017-.038-.008-.095-.018-.166l.195-.123c.005-.024.014-.054.015-.085l.01-.844c.003-.103-.008-.21.077-.313.145-.063.312-.033.476-.027.178.006.356.014.505-.106.07.029.134.064.201.08.07.015.145.014.217.014q.61-.004 1.22-.007c.812-.001 1.625.003 2.437-.001.49-.003.978-.017 1.467.007.164.008.33-.02.496-.03.041-.003.087-.016.124-.004.193.068.354-.026.474-.142.103-.098.21-.108.33-.116l-.013-.132c.209.014.413.024.617.044.058.005.12.035.17.066.09.054.171.118.259.18q-.051.465-.1.928-.01.079-.01.156c.006 1.395.009 2.792.019 4.188.002.29.03.581.042.872a6 6 0 0 1 0 .5c-.008.132.001.285-.061.391-.067.115-.071.26-.188.352-.102.08-.073.204-.046.322zM31.169 23.328a1 1 0 0 0-.149.22c-.093.047-.181.104-.279.136-.11.036-.165.122-.227.202-.047.06-.044.095-.02.295-.018.008-.045.026-.055.02-.225-.134-.467-.091-.695-.041-.269.058-.537.058-.807.058h-1.468q-1.782.001-3.562 0c-.25 0-.498.042-.746-.03-.063-.018-.141.021-.213.03-.103.012-.206.03-.31.03-.141 0-.309-.143-.308-.299.002-.103-.01-.207-.015-.313l-.306-.336h-1.855q-.312.001-.624-.004c-.335-.006-.453.086-.561.49q-.003.015-.005.03c-.04.275-.069.304-.34.351-.03.005-.066-.001-.092.01-.252.113-.506.092-.764.028-.207-.051-.414-.01-.62.02a1.2 1.2 0 0 1-.433.006c-.1-.021-.208-.012-.312-.012-1.208 0-2.416.002-3.625-.002-.218 0-.436-.023-.654-.036-.062-.004-.13-.023-.186-.006-.275.085-.532-.018-.793-.064-.11-.019-.216-.067-.324-.104-.02-.006-.049-.017-.052-.03-.033-.154-.17-.198-.28-.268-.112-.073-.23-.138-.356-.214-.018-.112-.008-.243-.104-.34-.02-.02-.028-.056-.033-.086-.043-.275-.132-.54-.129-.825.013-.917.005-1.833.006-2.75 0-.125.026-.242.074-.361.086-.218.145-.446.219-.68l.83-.667c.35-.007.675.015.993-.026.778-.098 1.558-.046 2.336-.061.072-.002.145-.013.218-.014q.264-.005.528-.002c.187.003.375.014.562.016.06 0 .121-.02.192-.031.017-.07.01-.16.05-.197.123-.113.126-.25.127-.397.002-.123.002-.248.09-.356.035-.043.043-.116.045-.177.012-.325.182-.585.343-.847a.6.6 0 0 1 .156-.15c.122-.092.24-.196.377-.26.129-.06.278-.079.42-.113q.181-.042.364-.08a.2.2 0 0 1 .062-.005c.873.072 1.747.04 2.62.044.875.005 1.75 0 2.625 0 .209 0 .417.008.625.016.103.003.208-.008.298.066.025.021.077.012.116.011.072-.002.143-.009.23-.015.039.175.117.315.278.393.023.011.044.046.051.074.063.233.246.371.425.538 0 .089-.008.193.003.295a.4.4 0 0 0 .067.2c.087.114.082.227.034.349-.015.037-.04.072-.05.11-.064.229.05.396.2.546.093.093.225.086.325.05.223-.083.448-.066.676-.065.822.002 1.644.016 2.465 0 .388-.008.767.041 1.15.084.167.02.32.074.445.188.235.216.482.421.655.695q.049.08.076.169c.03.097.02.202.107.286.035.034.032.117.032.178q.001 1.407-.005 2.814c0 .176-.025.352-.04.529-.003.041 0 .089-.02.122-.11.18-.103.375-.078.57zm-8.029-5.706c.067-.177.014-.307-.137-.428-.118-.095-.243-.11-.378-.107-.426.01-.85.026-1.277.011-.655-.023-1.312-.003-1.967 0q-.483 0-.967.002c-.091.001-.187-.007-.285.069-.018.097-.047.207-.057.32-.01.116.035.172.146.207q.237.078.49.077 1.935-.002 3.87.012c.208.002.387-.055.562-.163"/><path fill="#731F8E" d="m31.281 24.423.034-.056c.02.013.042.024.059.041.003.003-.017.041-.024.04-.023-.002-.045-.015-.069-.025M10.912 24.242c.007.004.019.006.02.012.002.008-.003.017-.004.025l-.03-.014zM36.38 35.304q-.02.008-.04.018c0-.016-.005-.033-.004-.05.001-.007.013-.012.02-.02l.023.05zM100.517 22.86l-.017.016q-.006-.012-.008-.022c.002-.006.01-.01.016-.016z"/></svg>