<svg xmlns="http://www.w3.org/2000/svg" width="71" height="66" fill="none"><path fill="#731F8E" fill-rule="evenodd" d="M23.473 65.052a.43.43 0 0 1-.426.425H11.998a.43.43 0 0 1-.425-.425V43.935a.43.43 0 0 1 .425-.425h11.049a.43.43 0 0 1 .426.425zm46.95-48.955a1.09 1.09 0 0 0-.96-.753l-7.198-.532-2.732-6.684a1.094 1.094 0 0 0-2.024 0l-2.732 6.684-7.199.532a1.094 1.094 0 0 0-.625 1.925l5.511 4.662-1.718 7.012a1.093 1.093 0 0 0 1.638 1.19l6.137-3.8 6.138 3.8a1.094 1.094 0 0 0 1.638-1.19l-1.72-7.012 5.513-4.663a1.09 1.09 0 0 0 .333-1.17M5.083 30.088a1.09 1.09 0 0 0 1.218.044l6.139-3.8 6.136 3.8a1.09 1.09 0 0 0 1.638-1.19l-1.719-7.01 5.513-4.663a1.094 1.094 0 0 0-.626-1.925l-7.2-.532-2.73-6.684a1.094 1.094 0 0 0-2.025 0l-2.73 6.684-7.2.532a1.095 1.095 0 0 0-.627 1.925l5.512 4.662-1.718 7.012a1.09 1.09 0 0 0 .42 1.145m42.3-21.105a1.095 1.095 0 0 1-.335 1.172l-5.51 4.663 1.717 7.01a1.093 1.093 0 0 1-1.638 1.191l-6.137-3.801-6.137 3.801a1.095 1.095 0 0 1-1.64-1.19l1.721-7.011-5.512-4.663a1.093 1.093 0 0 1 .625-1.925l7.2-.532 2.73-6.683a1.095 1.095 0 0 1 2.026 0l2.73 6.683 7.2.532a1.095 1.095 0 0 1 .96.753m5.509 37.168a1.094 1.094 0 0 0-.116 2.167 1.797 1.797 0 0 1-.59 3.546 1.094 1.094 0 0 0-.369 2.156 1.8 1.8 0 0 1 1.462 1.763c0 .672-1.081 1.562-2.142 1.764a1.093 1.093 0 0 0-.248 2.07 2.1 2.1 0 0 1 1.165 2.461c-.412 1.531-.97 1.605-1.557 1.547a1 1 0 0 0-.108-.005H27.93l-2.269-1.025V46.414l2.17-1.11a1.1 1.1 0 0 0 .465-.454l6.015-11.16c.379-.685.57-1.458.556-2.24l-.048-4.963q-.001-.015.001-.03l.018-.024a2.1 2.1 0 0 1 2.398-.624.8.8 0 0 1 .473.454l2.2 4.929c.396.848.52 1.799.355 2.72l-.972 6.01a1.096 1.096 0 0 0 1.08 1.268h12.557a2.488 2.488 0 0 1-.036 4.962m-32.879-2.436a2.61 2.61 0 1 0-.002 5.222 2.61 2.61 0 0 0 .002-5.221m0 3.034a.423.423 0 1 0 .005-.846.423.423 0 0 0-.005.846" clip-rule="evenodd"/></svg>