<svg xmlns="http://www.w3.org/2000/svg" width="53" height="66" fill="none"><path fill="#01AB8E" d="M18.451 16.795c-4.681 4.68-4.715 12.237-.076 16.877s12.196 4.605 16.877-.076c4.682-4.681 4.715-12.237.076-16.877s-12.196-4.606-16.877.076M24.459 52.39a8.35 8.35 0 0 1-6.649.659 8.34 8.34 0 0 1-4.988-4.437c-.304-.662-.773-1.215-1.318-1.675v17.525c0 .818.911 1.306 1.592.852l5.995-3.995a1.71 1.71 0 0 1 1.893 0l5.994 3.995a1.024 1.024 0 0 0 1.592-.852v-12.35c-1.34-.497-2.85-.428-4.111.279M40.905 48.61a8.35 8.35 0 0 1-4.992 4.44 8.3 8.3 0 0 1-2.566.406c-.46 0-.91-.099-1.364-.174v5.531c0 .442.264.828.684.966 1.677.552 6.015 1.98 8.224 2.722a1.014 1.014 0 0 0 1.334-.976l-.002-14.587c-.545.459-1.014 1.011-1.318 1.672"/><path fill="#01AB8E" d="M51.17 21.586a8.38 8.38 0 0 1-2.527-7.748 4.87 4.87 0 0 0-.843-3.86 4.85 4.85 0 0 0-3.397-1.988 8.37 8.37 0 0 1-6.598-4.79A4.86 4.86 0 0 0 34.86.58a4.86 4.86 0 0 0-3.921.388 8.39 8.39 0 0 1-8.15.002 4.88 4.88 0 0 0-3.924-.39 4.85 4.85 0 0 0-2.941 2.618 8.37 8.37 0 0 1-6.59 4.79 4.86 4.86 0 0 0-3.407 1.99 4.86 4.86 0 0 0-.846 3.846 8.38 8.38 0 0 1-2.51 7.749A4.87 4.87 0 0 0 .98 25.19a4.86 4.86 0 0 0 1.576 3.607 8.39 8.39 0 0 1 2.527 7.746 4.87 4.87 0 0 0 .841 3.86 4.86 4.86 0 0 0 3.398 1.99c.152.018.289.084.438.11.013 0 .023-.007.036-.007.287 0 .545.089.782.214 2.33.657 4.323 2.252 5.343 4.473a4.86 4.86 0 0 0 2.943 2.62 4.86 4.86 0 0 0 3.922-.389 8.37 8.37 0 0 1 8.15-.001 4.87 4.87 0 0 0 3.923.39 4.86 4.86 0 0 0 2.945-2.62c1.007-2.192 2.961-3.775 5.244-4.45.261-.16.551-.279.88-.279.045 0 .082.023.126.026.116-.019.221-.072.338-.085a4.87 4.87 0 0 0 3.406-1.99 4.87 4.87 0 0 0 .877-3.681c-.474-2.894.158-5.85 2.35-7.799l.143-.128a4.86 4.86 0 0 0 1.577-3.606c0-1.386-.56-2.666-1.576-3.606m-9.5 7.777c-1.36 5.128-5.507 9.274-10.634 10.635a15.413 15.413 0 0 1-18.98-18.98c1.361-5.127 5.508-9.274 10.635-10.634a15.413 15.413 0 0 1 18.98 18.979"/></svg>